<?xml version="1.0" encoding="UTF-8"?>
<svg width="150px" height="150px" viewBox="0 0 150 150" version="1.1"
     xmlns="http://www.w3.org/2000/svg">
    <title>defaultIMG_V2</title>
    <g id="Dashboard" stroke="none" stroke-width="1" fill="none" fill-rule="evenodd">
        <g id="defaultIMG_V2">
            <rect id="BG" fill="#EAEBEC" x="0" y="0" width="150" height="150"/>
            <path d="M86.71875,62.5 C87.1502225,62.5 87.5,62.8497775 87.5,63.28125 L87.5,63.28125 L87.5,86.71875 C87.5,87.1502225 87.1502225,87.5 86.71875,87.5 L86.71875,87.5 L63.28125,87.5 C62.8497775,87.5 62.5,87.1502225 62.5,86.71875 L62.5,86.71875 L62.5,63.28125 C62.5,62.8497775 62.8497775,62.5 63.28125,62.5 L63.28125,62.5 Z M85.937,84.062 L64.062,84.062 L64.0625,85.9375 L85.9375,85.9375 L85.937,84.062 Z M85.9375,64.0625 L64.0625,64.0625 L64.062,82.5 L85.937,82.5 L85.9375,64.0625 Z M79.6875,70.5729167 C80.3725187,70.5729167 81.0204157,70.8724002 81.4638698,71.3877067 L81.5625,71.5104167 L84.34375,75.21875 C84.6026335,75.563928 84.532678,76.0536165 84.1875,76.3125 C83.8688742,76.5514694 83.4271151,76.5102446 83.1574186,76.2309964 L83.09375,76.15625 L80.3125,72.4479167 C80.1649575,72.2511934 79.9334041,72.1354167 79.6875,72.1354167 C79.476725,72.1354167 79.2764935,72.2204771 79.1306729,72.3686641 L79.0625,72.4479167 L75.625,77.03125 C75.360118,77.384426 74.8617979,77.4437227 74.5227969,77.1812279 L74.4475728,77.1149272 L73.3777558,76.0451102 C73.2175837,75.8849234 72.9957689,75.8021455 72.7698131,75.8182352 C72.5761366,75.8320264 72.3957643,75.9172911 72.2625315,76.0556486 L72.2,76.1291667 L68.59375,80.9375 C68.3348665,81.282678 67.845178,81.3526335 67.5,81.09375 C67.1813742,80.8547806 67.0972574,80.419149 67.2898206,80.0820509 L67.34375,80 L70.9498483,75.191869 C71.3574228,74.6480698 71.9809648,74.3079508 72.6588325,74.2596815 C73.2802111,74.2154348 73.8911507,74.4204168 74.3587594,74.8250222 L74.4826355,74.9402812 L74.915,75.3733333 L77.8125,71.5104167 C78.2235112,70.9624017 78.8518363,70.6237742 79.5301539,70.5781949 L79.6875,70.5729167 Z M69.140625,66.40625 C70.6507786,66.40625 71.875,67.6304714 71.875,69.140625 C71.875,70.6507786 70.6507786,71.875 69.140625,71.875 C67.6304714,71.875 66.40625,70.6507786 66.40625,69.140625 C66.40625,67.6304714 67.6304714,66.40625 69.140625,66.40625 Z M69.140625,67.96875 C68.4934163,67.96875 67.96875,68.4934163 67.96875,69.140625 C67.96875,69.7878337 68.4934163,70.3125 69.140625,70.3125 C69.7878337,70.3125 70.3125,69.7878337 70.3125,69.140625 C70.3125,68.4934163 69.7878337,67.96875 69.140625,67.96875 Z" id="Combined-Shape" fill-opacity="0.5" fill="#333D47"/>
        </g>
    </g>
</svg>
