<svg width="24" height="24" viewBox="0 0 24 24" fill="none" xmlns="http://www.w3.org/2000/svg">
<path fill-rule="evenodd" clip-rule="evenodd" d="M12.5658 1.5C9.45515 1.5 6.93347 4.02168 6.93347 7.13233C6.93347 10.243 9.45515 12.7647 12.5658 12.7647C15.6764 12.7647 18.1981 10.243 18.1981 7.13233C18.1981 4.02168 15.6764 1.5 12.5658 1.5ZM14.8737 10.0512C15.5414 9.53639 16.0425 8.80944 16.3067 7.97243C16.3326 7.8231 16.3063 7.66872 16.2329 7.53898C16.1594 7.40925 16.044 7.31333 15.9087 7.26968C15.7735 7.22602 15.6281 7.23772 15.5004 7.30251C15.3727 7.3673 15.2718 7.48061 15.2171 7.62065C15.0271 8.20932 14.6714 8.71969 14.1995 9.08087C13.7277 9.44206 13.163 9.63613 12.5839 9.63613C12.0049 9.63613 11.4402 9.44206 10.9683 9.08087C10.4964 8.71969 10.1408 8.20932 9.95074 7.62065C9.936 7.53575 9.90481 7.45514 9.85922 7.38405C9.81363 7.31297 9.75465 7.253 9.68611 7.20806C9.61758 7.16311 9.54102 7.13419 9.46142 7.12317C9.38181 7.11215 9.30095 7.11929 9.22407 7.14411C9.1472 7.16893 9.07604 7.21088 9.01522 7.26723C8.95439 7.32359 8.90527 7.39308 8.87104 7.47121C8.83681 7.54933 8.81824 7.63433 8.81654 7.72069C8.81484 7.80704 8.83004 7.89282 8.86115 7.97243C9.12529 8.80944 9.62639 9.53639 10.2941 10.0512C10.9618 10.5661 11.7625 10.8429 12.5839 10.8429C13.4053 10.8429 14.206 10.5661 14.8737 10.0512ZM12.5661 13.6676C17.0208 13.6676 20.6321 17.2789 20.6321 21.7337C20.6321 22.1561 20.2897 22.4986 19.8672 22.4986H5.26488C4.84245 22.4986 4.5 22.1561 4.5 21.7337C4.5 17.2789 8.11129 13.6676 12.5661 13.6676Z" fill="#000"/>
</svg>
