<svg width="24" height="24" viewBox="0 0 24 24" fill="none" xmlns="http://www.w3.org/2000/svg">
<path fill-rule="evenodd" clip-rule="evenodd" d="M4.43413 12.9999L9.76883 12.9912C10.5147 12.9882 11.1258 12.4313 11.1937 11.7225L11.2 11.5879V4.40476C11.2015 3.67653 10.6337 3.07673 9.90367 3.0067L9.765 2.99988H4.43344C4.05224 3.00064 3.68698 3.14921 3.41812 3.41286C3.18287 3.64355 3.03831 3.94579 3.00661 4.26536L3.00001 4.40322V11.595C2.99924 11.9669 3.1499 12.3238 3.41884 12.5872C3.65417 12.8177 3.9632 12.9602 4.29211 12.9927L4.43413 12.9999ZM19.561 9.35292C20.3046 9.35683 20.9188 8.77441 20.9926 8.02138L21 7.87829V4.47035C20.9976 4.07795 20.8445 3.70259 20.5742 3.42683C20.3378 3.18556 20.0286 3.03784 19.7028 3.00627L19.5623 2.99991L14.2368 3.00913C13.4936 3.00595 12.8802 3.58874 12.8073 4.34081L12.8 4.48371V7.88237C12.802 8.27466 12.9548 8.65006 13.2248 8.92587C13.4611 9.1672 13.7702 9.31497 14.095 9.34656L14.235 9.35292H19.561ZM4.436 11.6999L4.39528 11.6947C4.36896 11.6881 4.34574 11.6754 4.32856 11.6586L4.30694 11.6282L4.30001 11.595L4.29852 4.46545L4.30027 4.39365C4.30192 4.37696 4.31107 4.35797 4.32832 4.34105C4.34541 4.32429 4.36853 4.31161 4.39398 4.305L4.43344 4.29988L9.70111 4.29831L9.77953 4.30076C9.8354 4.30612 9.87528 4.33524 9.89169 4.36949L9.9 4.40476L9.90141 11.5273L9.89965 11.5984C9.89649 11.6314 9.86528 11.6669 9.81839 11.6828L9.76671 11.6912L4.436 11.6999ZM14.294 8.05426L14.2208 8.05266C14.2003 8.05067 14.1757 8.0388 14.1537 8.01639C14.132 7.99415 14.1155 7.96402 14.1068 7.93172L14.1 7.88237L14.0983 4.5496L14.1012 4.46638C14.1088 4.38793 14.1509 4.3342 14.2007 4.31597L14.2391 4.30913L19.5036 4.29858L19.5774 4.3002C19.5989 4.30229 19.6237 4.31421 19.6458 4.33679C19.6677 4.35917 19.6844 4.38948 19.6931 4.42159L19.7 4.47035L19.7017 7.81118L19.6988 7.89465C19.691 7.97383 19.6487 8.02782 19.6026 8.04609L19.561 8.05292L14.294 8.05426ZM14.2341 20.9999L19.5688 20.9912C20.3147 20.9882 20.9258 20.4313 20.9937 19.7225L21 19.5879V12.4048C21.0015 11.6765 20.4337 11.0767 19.7037 11.0067L19.565 10.9999H14.2334C13.8522 11.0006 13.487 11.1492 13.2181 11.4129C12.9829 11.6436 12.8383 11.9458 12.8066 12.2654L12.8 12.4032V19.595C12.7992 19.9669 12.9499 20.3238 13.2188 20.5872C13.4542 20.8178 13.7632 20.9602 14.0921 20.9927L14.2341 20.9999ZM14.236 19.6999L14.1953 19.6947C14.169 19.6881 14.1457 19.6754 14.1286 19.6586L14.1069 19.6282L14.1 19.595L14.0985 12.4655L14.1003 12.3937C14.1019 12.377 14.1111 12.358 14.1283 12.3411C14.1454 12.3243 14.1685 12.3116 14.194 12.305L14.2334 12.2999L19.5011 12.2983L19.5795 12.3008C19.6354 12.3061 19.6753 12.3352 19.6917 12.3695L19.7 12.4048L19.7014 19.5273L19.6997 19.5984C19.6965 19.6314 19.6653 19.6669 19.6184 19.6828L19.5667 19.6912L14.236 19.6999ZM9.76104 21.0029C10.5046 21.0068 11.1188 20.4244 11.1926 19.6714L11.2 19.5283V16.1203C11.1976 15.7279 11.0445 15.3526 10.7742 15.0768C10.5378 14.8355 10.2286 14.6878 9.90281 14.6562L9.76234 14.6499L4.43682 14.6591C3.69358 14.6559 3.08024 15.2387 3.00725 15.9908L3 16.1337V19.5323C3.00196 19.9246 3.1548 20.3 3.42485 20.5758C3.66113 20.8172 3.97019 20.9649 4.295 20.9965L4.435 21.0029H9.76104ZM4.49398 19.7042L4.42083 19.7026C4.4003 19.7006 4.37568 19.6888 4.35374 19.6664C4.33197 19.6441 4.31546 19.614 4.30679 19.5817L4.3 19.5323L4.29833 16.1996L4.30117 16.1164C4.30879 16.0379 4.3509 15.9842 4.4007 15.9659L4.43907 15.9591L9.70357 15.9486L9.77739 15.9502C9.79889 15.9523 9.82367 15.9642 9.84579 15.9868C9.86773 16.0091 9.88436 16.0395 9.89311 16.0716L9.89999 16.1203L9.90172 19.4612L9.89879 19.5446C9.89103 19.6238 9.8487 19.6778 9.80264 19.6961L9.76104 19.7029L4.49398 19.7042Z" fill="#000"/>
</svg>
