<svg width="24" height="24" viewBox="0 0 24 24" fill="none" xmlns="http://www.w3.org/2000/svg">
<path fill-rule="evenodd" clip-rule="evenodd" d="M4.435 21.0029L9.76104 21.0029C10.5511 21.0071 11.1951 20.3493 11.2 19.5283L11.2 16.1203C11.1976 15.7279 11.0445 15.3526 10.7742 15.0768C10.504 14.8011 10.1388 14.6475 9.76234 14.6499L4.43682 14.6591C3.64712 14.6557 3.00408 15.3139 3 16.1337L3.00001 19.5324C3.00196 19.9246 3.1548 20.3 3.42485 20.5759C3.69489 20.8517 4.05998 21.0053 4.435 21.0029ZM4.43413 12.9999L9.76883 12.9912C10.5613 12.9881 11.2016 12.3595 11.2 11.5879L11.2 4.40477C11.2016 3.63102 10.5604 3.00227 9.765 2.9999L4.43344 2.9999C4.05224 3.00066 3.68698 3.14922 3.41812 3.41287C3.14926 3.67652 2.99885 4.03362 3.00001 4.40323L3.00001 11.595C2.99924 11.9669 3.1499 12.3238 3.41884 12.5872C3.68779 12.8507 4.053 12.9991 4.43413 12.9999ZM19.5688 20.9912L14.2341 20.9999C13.853 20.9991 13.4878 20.8507 13.2188 20.5872C12.9499 20.3238 12.7992 19.9669 12.8 19.595L12.8 12.4032C12.7989 12.0336 12.9493 11.6765 13.2181 11.4129C13.487 11.1492 13.8522 11.0007 14.2334 10.9999L19.565 10.9999C20.3604 11.0023 21.0016 11.631 21 12.4048L21 19.5879C21.0016 20.3595 20.3613 20.9881 19.5688 20.9912ZM14.235 9.3529L19.561 9.35289C20.3511 9.35709 20.9951 8.69933 21 7.8783L21 4.47036C20.9976 4.07796 20.8445 3.7026 20.5742 3.42685C20.304 3.15111 19.9388 2.99756 19.5623 2.99995L14.2368 3.00914C13.4471 3.00577 12.8041 3.66389 12.8 4.48372L12.8 7.88239C12.802 8.27467 12.9548 8.65007 13.2248 8.92589C13.4949 9.20169 13.86 9.35529 14.235 9.3529Z" fill="#000"/>
</svg>
