<svg width="24" height="24" viewBox="0 0 24 24" fill="none" xmlns="http://www.w3.org/2000/svg">
<path fill-rule="evenodd" clip-rule="evenodd" d="M21.1189 10.0426L20.0111 9.64966C19.6903 9.53562 19.4329 9.29091 19.3028 8.97628C19.1727 8.66165 19.1821 8.30661 19.3286 7.99928L19.8326 6.93782C20.2093 6.14356 20.0458 5.1982 19.4243 4.57659C18.8027 3.95499 17.8574 3.79149 17.0632 4.16823L16.0017 4.67314C15.6943 4.81902 15.3394 4.82784 15.025 4.69742C14.7107 4.56701 14.4662 4.30955 14.3523 3.98884L13.9586 2.88188C13.6633 2.05385 12.8793 1.50098 12.0002 1.50098C11.1212 1.50098 10.3371 2.05385 10.0419 2.88188L9.64817 3.98971C9.53406 4.31027 9.28956 4.56752 8.97523 4.69776C8.66089 4.828 8.30612 4.81906 7.99874 4.67314L6.93733 4.16823C6.14311 3.79149 5.19779 3.95499 4.57622 4.57659C3.95465 5.1982 3.79116 6.14356 4.16787 6.93782L4.67189 7.99928C4.81813 8.30665 4.82736 8.66157 4.69728 8.97612C4.5672 9.29066 4.30998 9.53539 3.98937 9.64966L2.88158 10.0434C2.05338 10.3382 1.50024 11.1223 1.50024 12.0014C1.50024 12.8806 2.05338 13.6646 2.88158 13.9594L3.98937 14.3532C4.30992 14.4672 4.56714 14.7118 4.69723 15.0262C4.82733 15.3406 4.81812 15.6954 4.67189 16.0027L4.16787 17.0641C3.79116 17.8584 3.95465 18.8038 4.57622 19.4254C5.19779 20.047 6.14311 20.2105 6.93733 19.8337L7.99874 19.3297C8.30604 19.1832 8.66106 19.174 8.97556 19.3043C9.29006 19.4346 9.53451 19.6922 9.64817 20.0131L10.0419 21.1201C10.3371 21.9481 11.1212 22.501 12.0002 22.501C12.8793 22.501 13.6633 21.9481 13.9586 21.1201L14.3523 20.0122C14.4664 19.6917 14.7109 19.4344 15.0253 19.3043C15.3397 19.1742 15.6945 19.1834 16.0017 19.3297L17.0632 19.8337C17.8574 20.2105 18.8027 20.047 19.4243 19.4254C20.0458 18.8038 20.2093 17.8584 19.8326 17.0641L19.3286 16.0027C19.1824 15.6954 19.1732 15.3406 19.3033 15.0262C19.4333 14.7118 19.6906 14.4672 20.0111 14.3532L21.1189 13.9585C21.9471 13.6637 22.5002 12.8797 22.5002 12.0005C22.5002 11.1214 21.9471 10.3374 21.1189 10.0426ZM12.0002 16.1869C10.3125 16.1624 8.79402 15.1557 8.11423 13.6106C7.22801 11.4646 8.24565 9.00611 10.3893 8.11434C12.5351 7.25613 14.9739 8.26568 15.8853 10.3895C16.7716 12.5356 15.7539 14.9941 13.6103 15.8858C13.1 16.0957 12.5519 16.1982 12.0002 16.1869Z" fill="#000"/>
</svg>
