<svg width="24" height="24" viewBox="0 0 24 24" fill="none" xmlns="http://www.w3.org/2000/svg">
<path fill-rule="evenodd" clip-rule="evenodd" d="M16.9054 4.13767C17.7576 3.73294 18.7722 3.90823 19.4392 4.57542C20.0644 5.20091 20.2573 6.13187 19.9454 6.94788L19.8763 7.10942L19.3813 8.15175C19.2609 8.40553 19.2534 8.69838 19.3607 8.95796C19.4526 9.18045 19.6215 9.36071 19.8337 9.46706L19.9433 9.51393L21.0313 9.90126C21.9189 10.2187 22.511 11.0599 22.5104 12.0027C22.5098 12.89 21.9842 13.6868 21.1816 14.0414L21.0279 14.1027L19.9396 14.4893C19.6741 14.5838 19.4611 14.7863 19.3533 15.0466C19.2608 15.2698 19.2531 15.5175 19.3288 15.7438L19.3736 15.855L19.8701 16.8987C20.2747 17.751 20.0994 18.7657 19.4322 19.4328C18.8067 20.0582 17.8758 20.2512 17.0599 19.9393L16.8984 19.8701L15.8556 19.3749C15.6014 19.254 15.3078 19.2464 15.0477 19.3542C14.8248 19.4465 14.6444 19.6162 14.5379 19.8301L14.491 19.9406L14.1026 21.0315C13.7825 21.9134 12.9448 22.5007 12.0067 22.501C11.1237 22.5012 10.3296 21.9813 9.97098 21.182L9.90893 21.0289L9.52113 19.9403C9.42677 19.6749 9.22444 19.462 8.96429 19.3542C8.7413 19.2619 8.49371 19.2542 8.26642 19.3305L8.15467 19.3756L7.10734 19.87C6.2569 20.2704 5.24682 20.0945 4.58177 19.4303C3.95829 18.8077 3.76353 17.8811 4.0717 17.0639L4.14006 16.902L4.63593 15.8598C4.75689 15.6055 4.76445 15.312 4.65673 15.0519C4.5644 14.8289 4.3948 14.6485 4.18091 14.542L4.07043 14.4951L2.98413 14.1084C2.09512 13.7934 1.50059 12.9529 1.49951 12.0096C1.4985 11.1218 2.02337 10.3238 2.82627 9.9683L2.98001 9.90691L4.06784 9.51987C4.33329 9.42537 4.54633 9.22287 4.65417 8.96252C4.74661 8.73937 4.75434 8.49161 4.67812 8.26422L4.63302 8.15243L4.13912 7.10585C3.73721 6.255 3.91276 5.24335 4.57784 4.57759C5.20136 3.95344 6.12926 3.75932 6.94545 4.06869L7.10708 4.1373L8.15053 4.63284C8.4051 4.75432 8.69928 4.76196 8.95983 4.65387C9.18316 4.56122 9.36377 4.39101 9.47067 4.17465L9.51784 4.06276L9.90849 2.97544C10.2273 2.09063 11.0668 1.50083 12.0072 1.50098C12.8922 1.50111 13.6876 2.0238 14.044 2.82412L14.1055 2.97737L14.4939 4.06459C14.588 4.32996 14.7901 4.54298 15.0502 4.65071C15.2732 4.74305 15.5207 4.75061 15.749 4.67363L15.8613 4.62809L16.9054 4.13767ZM18.4814 5.3716C18.2196 5.16351 17.8699 5.10117 17.551 5.20594L17.4331 5.2531L16.3898 5.74313C15.8198 6.01485 15.1614 6.03205 14.5781 5.79043C14.0531 5.57298 13.6333 5.16426 13.4013 4.65192L13.331 4.47743L12.9436 3.39301C12.8015 2.99808 12.427 2.73475 12.0073 2.73468C11.6296 2.73463 11.2884 2.94783 11.1203 3.27795L11.0709 3.39219L10.6816 4.47567C10.4712 5.07203 10.0174 5.551 9.43335 5.79332C8.90767 6.0114 8.32093 6.01933 7.79358 5.82058L7.62016 5.74668L6.57937 5.25239C6.1997 5.07343 5.74853 5.15216 5.45184 5.44914C5.18482 5.71643 5.09469 6.1087 5.2101 6.46132L5.25623 6.57717L5.74957 7.62256C6.02032 8.19261 6.037 8.8507 5.79548 9.43379C5.5781 9.95858 5.16989 10.3784 4.65693 10.6115L4.48219 10.6821L3.39496 11.0689C2.99871 11.2104 2.73436 11.586 2.73484 12.0068C2.73527 12.3855 2.95014 12.7271 3.28283 12.8943L3.39796 12.9434L4.4847 13.3302C5.07935 13.5415 5.55661 13.9948 5.79808 14.5779C6.0154 15.1027 6.02341 15.6882 5.82517 16.2156L5.75145 16.389L5.25705 17.4282C5.07893 17.808 5.15804 18.2587 5.45484 18.5551C5.72197 18.8219 6.11382 18.9122 6.46576 18.7975L6.58137 18.7516L7.62661 18.2582C8.1965 17.9873 8.85444 17.9705 9.43737 18.212C9.96201 18.4293 10.3817 18.8375 10.6144 19.3501L10.685 19.5247L11.0713 20.6094C11.2143 21.0029 11.5883 21.2648 12.0069 21.2647C12.3837 21.2646 12.7243 21.0523 12.8918 20.7255L12.9411 20.6125L13.328 19.5256C13.5393 18.9308 13.9927 18.4535 14.5757 18.2119C15.1004 17.9945 15.6859 17.9865 16.2129 18.1846L16.3862 18.2582L17.4288 18.7533C17.809 18.934 18.2619 18.8559 18.5596 18.5582C18.8276 18.2902 18.9178 17.8966 18.8017 17.5436L18.7553 17.4277L18.2588 16.384C17.988 15.814 17.9714 15.1559 18.2129 14.5728C18.4303 14.048 18.8385 13.6282 19.3516 13.3951L19.5265 13.3244L20.6146 12.9378C21.0109 12.7966 21.2757 12.4215 21.276 12.0007C21.2762 11.6221 21.0622 11.2801 20.7312 11.1124L20.6167 11.0632L19.5284 10.6757C18.9357 10.4635 18.4604 10.0104 18.2199 9.42851C18.0035 8.9048 17.9954 8.32068 18.1928 7.79418L18.2662 7.62097L18.7613 6.57829C18.924 6.236 18.877 5.83494 18.649 5.54109L18.5663 5.44733L18.4814 5.3716ZM13.6583 8.0093C15.8636 8.92274 16.9107 11.4512 15.9971 13.6567C15.0835 15.8623 12.5552 16.9097 10.35 15.9963C8.14475 15.0829 7.09764 12.5544 8.01121 10.3489C8.92477 8.14332 11.4531 7.09586 13.6583 8.0093ZM13.1858 9.15194C11.6107 8.49948 9.80474 9.24767 9.15219 10.8231C8.49964 12.3985 9.24757 14.2045 10.8227 14.8569C12.3979 15.5094 14.2038 14.7612 14.8564 13.1858C15.5089 11.6104 14.761 9.8044 13.1858 9.15194Z" fill="#000"/>
</svg>
