<svg width="24" height="24" viewBox="0 0 24 24" fill="none" xmlns="http://www.w3.org/2000/svg">
<path fill-rule="evenodd" clip-rule="evenodd" d="M21.7233 11.8096L12.1983 2.27795C11.701 1.77875 11.0243 1.49908 10.3199 1.50099H4.15568C2.69051 1.49908 1.50215 2.68553 1.50024 4.15069L1.50693 10.3244C1.50502 11.0279 1.78469 11.7037 2.28389 12.2L11.8088 21.725C12.8464 22.7596 14.5253 22.7596 15.5629 21.725L21.7233 15.5655C22.7589 14.528 22.7589 12.8471 21.7233 11.8096ZM13.2861 18.3755C13.0065 18.6552 12.5531 18.6552 12.2734 18.3755C11.9937 18.0958 11.9937 17.6424 12.2734 17.3628L12.6552 16.981C12.9301 16.6965 13.3825 16.6879 13.667 16.9628C13.9514 17.2377 13.96 17.6902 13.6851 17.9746C13.6794 17.9803 13.6737 17.9861 13.6679 17.9918L13.2861 18.3755ZM13.8704 14.0256C13.5812 14.2947 13.1278 14.2795 12.8586 13.9902C12.6028 13.7153 12.6028 13.2887 12.8586 13.0138L15.3938 10.4748C15.683 10.2056 16.1364 10.2209 16.4055 10.5101C16.6614 10.785 16.6614 11.2117 16.4055 11.4866L13.8704 14.0256ZM8.71622 13.811C8.43177 14.0859 7.97838 14.0773 7.70444 13.7929C7.43622 13.5151 7.43718 13.0751 7.70444 12.7983L12.7089 7.79382C12.9733 7.49983 13.4257 7.47502 13.7197 7.73941C14.0137 8.00381 14.0385 8.45625 13.7741 8.75023C13.756 8.77028 13.7369 8.78937 13.7178 8.80655L8.71622 13.811ZM11.7856 16.1039L11.4038 16.4857C11.1194 16.7606 10.666 16.7521 10.392 16.4676C10.1238 16.1898 10.1248 15.7498 10.392 15.473L10.7738 15.0912C11.0583 14.8163 11.5117 14.8249 11.7856 15.1094C12.0538 15.3871 12.0538 15.8262 11.7856 16.1039ZM7.33313 5.93657C7.33227 6.58099 6.80916 7.10238 6.16474 7.10152C5.52161 7.10066 5.00065 6.5797 4.99979 5.93657C4.99936 5.29172 5.52161 4.76862 6.16646 4.76819C6.8126 4.76905 7.33399 5.29215 7.33313 5.93657ZM17.2822 12.3608C17.5619 12.0811 18.0153 12.0811 18.295 12.3608C18.5746 12.6404 18.5746 13.0938 18.295 13.3735L15.756 15.9134C15.4763 16.1931 15.0229 16.1931 14.7433 15.9134C14.4636 15.6337 14.4636 15.1804 14.7433 14.9007L17.2822 12.3608Z" fill="#000"/>
</svg>
