<svg width="24" height="24" viewBox="0 0 24 24" fill="none" xmlns="http://www.w3.org/2000/svg">
<path fill-rule="evenodd" clip-rule="evenodd" d="M10.4797 2.50002C11.0462 2.49849 11.5929 2.69825 12.0234 3.05988L12.1792 3.203L20.797 11.8268C21.6894 12.7209 21.7319 14.1428 20.9245 15.0871L20.797 15.2251L15.2233 20.7979C14.3293 21.6895 12.9089 21.7319 11.9647 20.9253L11.8268 20.7979L3.20902 12.1801C2.80754 11.7809 2.563 11.2535 2.51483 10.6942L2.50605 10.4831L2.5 4.89738C2.50166 3.62699 3.48917 2.58819 4.73819 2.50534L4.90253 2.50002H10.4797ZM10.4797 3.87224L4.90075 3.87224C4.3739 3.87155 3.93928 4.26771 3.87929 4.77659L3.87222 4.89589L3.87826 10.4869C3.87765 10.712 3.95221 10.9298 4.08951 11.1079L4.17932 11.2098L12.7958 19.8262C13.1679 20.1974 13.7523 20.2259 14.1561 19.9129L14.2531 19.8275L19.8258 14.2557C20.1972 13.8836 20.2257 13.2983 19.9119 12.8939L19.8264 12.7968L11.2071 4.17144C11.0476 4.01139 10.8399 3.9098 10.6158 3.88081L10.4797 3.87224ZM12.2474 17.7684C12.5004 18.0214 12.9106 18.0214 13.1636 17.7684L13.5091 17.4212L13.5246 17.4057C13.7734 17.1483 13.7656 16.739 13.5082 16.4903C13.2509 16.2415 12.8415 16.2493 12.5928 16.5067L12.2474 16.8521C11.9943 17.1051 11.9943 17.5154 12.2474 17.7684ZM12.7768 13.7985C13.0203 14.0601 13.4305 14.0739 13.6922 13.8304L15.9859 11.5332C16.2174 11.2845 16.2174 10.8985 15.9859 10.6498C15.7424 10.3881 15.3322 10.3743 15.0705 10.6178L12.7768 12.915C12.5454 13.1637 12.5454 13.5497 12.7768 13.7985ZM8.11336 13.6197C8.36121 13.877 8.77142 13.8848 9.02877 13.6361L13.554 9.10825C13.5713 9.09271 13.5886 9.07543 13.605 9.0573C13.8442 8.79131 13.8217 8.38196 13.5558 8.14275C13.2898 7.90353 12.8804 7.92598 12.6412 8.19197L8.11336 12.7198C7.87155 12.9703 7.87069 13.3684 8.11336 13.6197ZM11.4607 16.0585L11.8061 15.7131C12.0488 15.4618 12.0488 15.0645 11.8061 14.8132C11.5583 14.5558 11.148 14.5481 10.8907 14.7968L10.5453 15.1422C10.3034 15.3927 10.3026 15.7908 10.5453 16.0421C10.7931 16.2994 11.2033 16.3072 11.4607 16.0585ZM6.72038 7.56667C7.30342 7.56745 7.77671 7.09572 7.77749 6.51267C7.77827 5.92963 7.30654 5.45634 6.72193 5.45556C6.1385 5.45595 5.66599 5.92924 5.66638 6.51267C5.66716 7.09455 6.1385 7.56589 6.72038 7.56667ZM17.695 12.326C17.4419 12.073 17.0317 12.073 16.7787 12.326L14.4815 14.624C14.2285 14.8771 14.2285 15.2873 14.4815 15.5403C14.7345 15.7933 15.1447 15.7933 15.3978 15.5403L17.695 13.2423C17.948 12.9892 17.948 12.579 17.695 12.326Z" fill="#000"/>
</svg>
