<svg width="24" height="24" viewBox="0 0 24 24" fill="none" xmlns="http://www.w3.org/2000/svg">
<path fill-rule="evenodd" clip-rule="evenodd" d="M11.9151 2.5C12.9861 2.5 13.9776 3.0655 14.5228 3.98739C14.5482 4.03165 14.5899 4.06325 14.6378 4.0764L14.6875 4.08319H18.6459C19.2607 4.08319 19.7664 4.55047 19.8273 5.14928L19.8334 5.2707V20.3125C19.8334 20.9273 19.3661 21.4331 18.7673 21.4939L18.6459 21.5H5.18743C4.57257 21.5 4.06686 21.0327 4.00605 20.4339L3.99992 20.3125V5.2707C3.99992 4.65584 4.4672 4.15013 5.06601 4.08932L5.18743 4.08319H9.14579C9.2127 4.08179 9.27399 4.04544 9.30729 3.98739C9.85254 3.0655 10.844 2.5 11.9151 2.5ZM11.9151 3.8C11.3545 3.8 10.8322 4.07129 10.5159 4.51053L10.4348 4.63441C10.1982 5.04673 9.78098 5.31895 9.2939 5.37345L9.14579 5.38319L5.79902 5.38302C5.52287 5.38301 5.299 5.60687 5.299 5.88302V19.7C5.299 19.9761 5.52286 20.2 5.799 20.2H18.033C18.3091 20.2 18.533 19.9761 18.533 19.7V5.88302C18.533 5.60687 18.3091 5.38301 18.033 5.38302L14.6821 5.38318C14.1988 5.38117 13.7497 5.14528 13.4794 4.76689L13.4039 4.64918C13.0926 4.12286 12.5266 3.8 11.9151 3.8ZM8.74996 9.03035H15.0833C15.4113 9.03035 15.6771 9.29619 15.6771 9.62411C15.6771 9.95203 15.4113 10.2179 15.0833 10.2179H8.74996C8.42203 10.2179 8.1562 9.95203 8.1562 9.62411C8.1562 9.29619 8.42203 9.03035 8.74996 9.03035ZM8.74996 11.8012H15.0833C15.4113 11.8012 15.6771 12.067 15.6771 12.395C15.6771 12.7229 15.4113 12.9887 15.0833 12.9887H8.74996C8.42203 12.9887 8.1562 12.7229 8.1562 12.395C8.1562 12.067 8.42203 11.8012 8.74996 11.8012ZM12.3125 14.5721H8.74996C8.42203 14.5721 8.1562 14.8379 8.1562 15.1658C8.1562 15.4937 8.42203 15.7596 8.74996 15.7596H12.3125C12.6404 15.7596 12.9062 15.4937 12.9062 15.1658C12.9062 14.8379 12.6404 14.5721 12.3125 14.5721Z" fill="#000"/>
</svg>
