<svg width="24" height="24" viewBox="0 0 24 24" fill="none" xmlns="http://www.w3.org/2000/svg">
<path fill-rule="evenodd" clip-rule="evenodd" d="M19.1878 3.25081H14.8127C14.7375 3.2505 14.6682 3.21016 14.6307 3.14494C14.0281 2.12601 12.9322 1.50098 11.7484 1.50098C10.5646 1.50098 9.46881 2.12601 8.86617 3.14494C8.82936 3.20909 8.76162 3.24927 8.68767 3.25081H4.31263C3.58775 3.25081 3.00012 3.83845 3.00012 4.56333V21.1885C3.00012 21.9133 3.58775 22.501 4.31263 22.501H19.1878C19.9126 22.501 20.5003 21.9133 20.5003 21.1885V4.56333C20.5003 3.83845 19.9126 3.25081 19.1878 3.25081ZM17.8755 15.7282C17.8757 16.2499 17.6895 16.7545 17.3505 17.151L15.6714 19.111C15.2554 19.5963 14.648 19.8753 14.0088 19.8749H6.0629C5.82127 19.8749 5.62539 19.679 5.62539 19.4374V6.31312C5.62539 6.07149 5.82127 5.87562 6.0629 5.87562H17.438C17.6796 5.87562 17.8755 6.07149 17.8755 6.31312V15.7282ZM8.2504 8.71865H15.2505C15.6129 8.71865 15.9067 9.01246 15.9067 9.3749C15.9067 9.73734 15.6129 10.0312 15.2505 10.0312H8.2504C7.88796 10.0312 7.59414 9.73734 7.59414 9.3749C7.59414 9.01246 7.88796 8.71865 8.2504 8.71865ZM15.2505 11.7819H8.2504C7.88796 11.7819 7.59414 12.0757 7.59414 12.4381C7.59414 12.8006 7.88796 13.0944 8.2504 13.0944H15.2505C15.6129 13.0944 15.9067 12.8006 15.9067 12.4381C15.9067 12.0757 15.6129 11.7819 15.2505 11.7819ZM8.2504 14.8451H12.1879C12.5504 14.8451 12.8442 15.1389 12.8442 15.5013C12.8442 15.8638 12.5504 16.1576 12.1879 16.1576H8.2504C7.88796 16.1576 7.59414 15.8638 7.59414 15.5013C7.59414 15.1389 7.88796 14.8451 8.2504 14.8451Z" fill="#000"/>
</svg>
